<?xml version="1.0" standalone="no"?>
<!DOCTYPE svg PUBLIC "-//W3C//DTD SVG 20010904//EN"
 "http://www.w3.org/TR/2001/REC-SVG-20010904/DTD/svg10.dtd">
<svg version="1.0" xmlns="http://www.w3.org/2000/svg"
 width="960.000000pt" height="541.000000pt" viewBox="0 0 960.000000 541.000000"
 preserveAspectRatio="xMidYMid meet">
<metadata>
Created by potrace 1.16, written by Peter Selinger 2001-2019
</metadata>
<g transform="translate(0.000000,541.000000) scale(0.100000,-0.100000)"
fill="#000000" stroke="none">
<path d="M3714 3264 c-54 -19 -118 -75 -151 -131 -21 -37 -28 -62 -31 -127 -4
-76 -2 -85 30 -146 109 -210 394 -208 506 5 22 41 27 64 27 126 0 65 -4 84
-30 134 -34 66 -101 125 -165 144 -50 15 -136 13 -186 -5z m192 -68 c83 -39
126 -108 126 -207 0 -171 -180 -275 -329 -189 -129 74 -150 244 -44 350 73 72
157 88 247 46z"/>
<path d="M4295 3266 c-65 -29 -99 -95 -84 -164 10 -48 44 -79 134 -124 96 -47
114 -63 122 -111 5 -31 1 -40 -24 -65 -37 -38 -91 -47 -163 -28 -62 16 -70 14
-70 -18 0 -32 48 -51 130 -51 123 0 196 63 188 163 -6 68 -45 110 -146 160
-111 54 -142 111 -87 162 30 28 119 39 155 20 20 -11 25 -10 37 6 21 29 16 40
-26 52 -51 16 -129 15 -166 -2z"/>
<path d="M4665 3271 c-3 -2 -5 -130 -5 -283 l0 -278 35 0 35 0 -2 282 -3 281
-28 1 c-15 1 -30 0 -32 -3z"/>
<path d="M5375 3271 c-3 -2 -5 -130 -5 -283 l0 -278 35 0 35 0 -2 282 -3 281
-28 1 c-15 1 -30 0 -32 -3z"/>
<path d="M1663 3256 c-67 -6 -123 -13 -125 -16 -26 -33 -179 -254 -188 -270
-10 -18 -9 -25 3 -37 13 -14 33 -14 149 -4 239 20 204 3 311 154 115 163 108
152 101 171 -7 19 -63 19 -251 2z m141 -68 c-5 -7 -34 -50 -66 -94 l-58 -82
-113 -9 c-61 -4 -114 -8 -115 -6 -3 1 105 160 123 181 3 3 149 18 208 21 20 1
26 -3 21 -11z"/>
<path d="M3090 2989 l0 -280 31 3 31 3 0 101 -1 101 86 7 c139 10 200 56 209
157 7 75 -23 135 -86 167 -38 19 -60 22 -157 22 l-113 0 0 -281z m248 201 c61
-38 68 -122 13 -172 -30 -27 -104 -43 -166 -36 l-30 3 -2 113 -2 112 77 0 c59
0 85 -5 110 -20z"/>
<path d="M4840 3245 c0 -25 1 -25 90 -25 l90 0 0 -255 0 -255 30 0 30 0 2 253
3 252 93 3 c90 3 92 3 92 27 l0 25 -215 0 -215 0 0 -25z"/>
<path d="M5550 3265 c0 -2 45 -127 100 -276 55 -149 100 -273 100 -275 0 -2
20 -4 43 -4 l44 0 101 263 c55 144 104 270 107 280 6 14 1 17 -27 17 l-35 0
-93 -245 c-51 -135 -94 -245 -95 -245 -1 0 -42 110 -90 245 l-88 245 -33 0
c-19 0 -34 -2 -34 -5z"/>
<path d="M6150 2990 l0 -280 185 0 185 0 0 30 0 29 -152 3 -153 3 0 110 0 110
140 5 140 5 0 25 0 25 -140 5 -140 5 -3 73 -3 72 151 0 150 0 0 30 0 30 -180
0 -180 0 0 -280z"/>
<path d="M4446 2598 c-13 -29 -85 -209 -161 -400 -76 -192 -141 -348 -145
-348 -3 0 -44 82 -90 183 l-86 182 -67 3 -68 3 3 -28 c3 -26 6 -28 48 -29 l45
-1 99 -212 c86 -183 103 -212 120 -209 18 3 49 73 190 426 l170 422 118 0 118
0 0 30 0 30 -136 0 -135 0 -23 -52z"/>
<path d="M1678 2488 c-196 -94 -196 -92 3 -186 83 -40 160 -72 172 -71 12 0
87 33 167 72 114 57 145 76 145 92 0 16 -29 34 -140 88 -77 38 -153 71 -170
73 -22 2 -70 -16 -177 -68z m277 -45 c53 -25 92 -49 88 -53 -4 -4 -50 -26
-100 -50 l-93 -43 -92 43 c-51 23 -97 46 -101 50 -8 7 164 97 190 99 6 1 55
-20 108 -46z"/>
<path d="M4448 2313 c-2 -4 -3 -132 -3 -283 l0 -275 33 -3 32 -3 -2 283 -3
283 -27 3 c-14 2 -28 0 -30 -5z"/>
<path d="M5995 2308 c-32 -11 -91 -52 -113 -78 -7 -8 -25 -39 -39 -68 -23 -48
-25 -63 -21 -146 3 -80 8 -99 34 -146 73 -130 266 -168 386 -77 50 39 54 48
27 65 -18 11 -24 11 -38 -2 -48 -44 -168 -60 -234 -32 -140 58 -156 317 -25
403 66 44 188 41 241 -5 16 -14 20 -14 39 6 22 22 22 22 3 37 -64 51 -181 70
-260 43z"/>
<path d="M2850 2030 l0 -280 98 0 c160 0 227 29 277 122 56 102 44 277 -25
360 -52 62 -98 78 -233 78 l-117 0 0 -280z m269 191 c50 -36 76 -100 76 -191
-1 -148 -74 -219 -227 -220 l-48 0 0 221 0 221 83 -3 c67 -3 88 -8 116 -28z"/>
<path d="M3390 2030 l0 -280 180 0 180 0 0 30 0 30 -150 0 -150 0 0 115 0 115
140 0 140 0 0 30 0 30 -140 0 -140 0 0 75 0 75 150 0 150 0 0 30 0 30 -180 0
-180 0 0 -280z"/>
<path d="M4840 2301 c0 -6 -47 -129 -105 -275 -58 -146 -105 -268 -105 -271 0
-3 15 -5 34 -5 32 0 36 3 52 48 9 26 25 66 35 90 l18 43 118 -3 118 -3 32 -85
c31 -84 32 -85 67 -88 l36 -3 -23 63 c-13 35 -59 161 -103 280 l-79 218 -47 0
c-27 0 -48 -4 -48 -9z m95 -168 c22 -65 41 -124 43 -130 3 -10 -21 -13 -93
-13 -53 0 -95 4 -93 8 2 5 23 63 48 130 25 67 47 122 50 122 3 0 23 -53 45
-117z"/>
<path d="M5240 2030 l0 -280 35 0 35 0 0 236 c0 130 4 234 8 232 5 -1 74 -57
155 -123 l147 -120 0 -112 0 -113 35 0 35 0 0 280 0 280 -35 0 -34 0 -3 -125
-3 -126 -152 126 c-131 108 -157 125 -187 125 l-36 0 0 -280z"/>
<path d="M6362 2288 c9 -13 52 -80 97 -151 l81 -127 0 -130 0 -130 30 0 30 0
0 126 0 126 104 154 105 154 -34 0 c-32 0 -38 -6 -115 -120 -45 -66 -83 -120
-85 -120 -2 0 -38 54 -80 120 -75 116 -79 120 -112 120 -34 0 -35 -1 -21 -22z"/>
<path d="M1682 2015 c-201 -97 -201 -94 11 -193 l157 -74 158 74 c212 100 211
96 8 193 -86 41 -161 75 -168 74 -7 0 -82 -34 -166 -74z m271 -45 c53 -24 97
-47 97 -50 0 -3 -45 -26 -100 -52 l-100 -47 -100 47 c-55 26 -100 49 -100 52
0 7 192 99 201 96 3 0 49 -21 102 -46z"/>
</g>
</svg>
